<?xml version="1.0" encoding="utf-8"?>
<!-- Generator: Adobe Illustrator 25.0.1, SVG Export Plug-In . SVG Version: 6.00 Build 0)  -->
<svg version="1.1" id="Layer_1" xmlns="http://www.w3.org/2000/svg" xmlns:xlink="http://www.w3.org/1999/xlink" x="0px" y="0px"
	 viewBox="0 0 12.5 18.95" style="enable-background:new 0 0 12.5 18.95;" xml:space="preserve">
<style type="text/css">
	.st0{fill:#040404;}
</style>
<g id="_x35_iLkVx.tif">
	<g>
		<path class="st0" d="M10.83,0.02c0.28,0,0.57,0.01,0.85,0c0.11,0,0.15,0.04,0.18,0.13c0.2,0.61,0.4,1.21,0.62,1.82
			c0.05,0.13,0.01,0.18-0.09,0.24c-0.22,0.14-0.42,0.29-0.64,0.42c-0.09,0.06-0.13,0.12-0.13,0.23c-0.01,0.27-0.03,0.54-0.04,0.81
			c0,0.09-0.03,0.15-0.11,0.2c-0.19,0.12-0.37,0.27-0.57,0.38c-0.18,0.1-0.26,0.23-0.24,0.42c0.06,0.6-0.18,1.09-0.49,1.58
			C10,6.52,9.88,6.79,9.47,6.71C9.34,6.69,9.19,6.76,9.05,6.77C8.82,6.8,8.66,6.9,8.57,7.13C8.52,7.25,8.49,7.34,8.53,7.47
			c0.09,0.26,0.19,0.52,0.34,0.75c0.06,0.09,0.07,0.17,0.01,0.27C8.68,8.82,8.51,9.17,8.31,9.5C8.22,9.65,8.24,9.77,8.35,9.9
			c0.17,0.18,0.33,0.37,0.49,0.56c0.38,0.46,0.2,0.86-0.22,1.1c-0.19,0.11-0.41,0.17-0.61,0.26c-0.05,0.03-0.11,0.05-0.16,0.08
			c-0.22,0.14-0.22,0.15-0.08,0.36c0.52,0.81,0.82,1.7,0.77,2.67c-0.06,1.31-0.66,2.37-1.71,3.15c-1.52,1.12-3.45,1.15-4.99,0.07
			c-1.15-0.81-1.75-1.95-1.83-3.36c-0.11-1.86,1.07-3.69,2.91-4.32c0.31-0.1,0.62-0.18,0.94-0.21c0.12-0.01,0.19-0.05,0.25-0.16
			c1.42-2.49,2.84-4.98,4.26-7.46c0.47-0.83,0.95-1.65,1.41-2.48C9.84,0.04,9.91-0.01,10.04,0c0.26,0.01,0.53,0,0.79,0
			C10.83,0.01,10.83,0.02,10.83,0.02z M10.98,1.36c0-0.1-0.04-0.18-0.14-0.23c-0.09-0.04-0.17-0.01-0.24,0.05
			c-0.05,0.05-0.09,0.1-0.12,0.16c-1.68,2.93-3.36,5.86-5.04,8.8c-0.1,0.18-0.08,0.34,0.04,0.41c0.13,0.08,0.27,0.02,0.37-0.17
			c1.68-2.94,3.36-5.88,5.05-8.82C10.95,1.5,10.98,1.44,10.98,1.36z M2.39,16.26c-0.02,0.49,0.39,0.94,0.89,0.97
			c0.55,0.03,0.99-0.38,1.01-0.95c0.02-0.47-0.4-0.94-0.87-0.97C2.85,15.28,2.42,15.68,2.39,16.26z"/>
	</g>
</g>
</svg>
